<svg width="44" height="44" viewBox="0 0 44 44" fill="none" xmlns="http://www.w3.org/2000/svg">
<path d="M18.3333 29.3334L18.3333 33C18.3333 33.9725 18.7196 34.9051 19.4073 35.5927C20.0949 36.2804 21.0275 36.6667 22 36.6667L34.8333 36.6667C35.8058 36.6667 36.7384 36.2804 37.4261 35.5927C38.1137 34.9051 38.5 33.9725 38.5 33L38.5 11C38.5 10.0276 38.1137 9.09493 37.4261 8.4073C36.7384 7.71966 35.8058 7.33335 34.8333 7.33335L22 7.33335C21.0275 7.33335 20.0949 7.71966 19.4073 8.4073C18.7196 9.09493 18.3333 10.0276 18.3333 11L18.3333 14.6667" stroke="#ECF0F1" stroke-width="2.75" stroke-linecap="round" stroke-linejoin="round"/>
<path d="M7.33334 22L31.1667 22M31.1667 22L25.6667 27.5M31.1667 22L25.6667 16.5" stroke="#ECF0F1" stroke-width="2.75" stroke-linecap="round" stroke-linejoin="round"/>
</svg>
