<svg width="44" height="44" viewBox="0 0 44 44" fill="none" xmlns="http://www.w3.org/2000/svg">
<path d="M16 29.3334L16 33C16 33.9725 16.3863 34.9051 17.0739 35.5927C17.7616 36.2804 18.6942 36.6667 19.6667 36.6667L32.5 36.6667C33.4725 36.6667 34.4051 36.2804 35.0927 35.5927C35.7803 34.9051 36.1667 33.9725 36.1667 33L36.1667 11C36.1667 10.0276 35.7803 9.09493 35.0927 8.4073C34.4051 7.71966 33.4725 7.33335 32.5 7.33335L19.6667 7.33335C18.6942 7.33335 17.7616 7.71966 17.0739 8.4073C16.3863 9.09493 16 10.0276 16 11L16 14.6667" stroke="#ECF0F1" stroke-width="2.75" stroke-linecap="round" stroke-linejoin="round"/>
<path d="M5.00001 22L28.8333 22M28.8333 22L23.3333 27.5M28.8333 22L23.3333 16.5" stroke="#ECF0F1" stroke-width="2.75" stroke-linecap="round" stroke-linejoin="round"/>
</svg>
