<svg width="44" height="44" viewBox="0 0 44 44" fill="none" xmlns="http://www.w3.org/2000/svg">
<path d="M10.5604 17.1223C9.65862 17.1225 8.77702 16.8553 8.02711 16.3544C7.27719 15.8536 6.69264 15.1416 6.34739 14.3085C6.00213 13.4754 5.91168 12.5586 6.08747 11.6741C6.26326 10.7896 6.69739 9.97705 7.33497 9.33929C7.97254 8.70153 8.78492 8.26717 9.66936 8.09115C10.5538 7.91513 11.4706 8.00536 12.3037 8.35041C13.1369 8.69547 13.849 9.27986 14.35 10.0297C14.8511 10.7795 15.1185 11.6611 15.1185 12.5629C15.1182 13.7718 14.6379 14.9312 13.7832 15.7861C12.9285 16.6411 11.7693 17.1217 10.5604 17.1223ZM22.0006 40C21.0991 40 20.2178 39.7327 19.4682 39.2318C18.7187 38.7309 18.1344 38.019 17.7894 37.1861C17.4445 36.3532 17.3542 35.4367 17.5301 34.5525C17.7059 33.6683 18.1401 32.856 18.7775 32.2186C19.415 31.5811 20.2272 31.1469 21.1113 30.9711C21.9955 30.7952 22.912 30.8855 23.7449 31.2305C24.5778 31.5755 25.2896 32.1597 25.7905 32.9093C26.2913 33.6589 26.5587 34.5402 26.5587 35.4417C26.5587 36.6507 26.0784 37.8101 25.2236 38.6649C24.3688 39.5198 23.2095 40 22.0006 40ZM22.0006 28.5594C21.0991 28.5594 20.2178 28.2921 19.4682 27.7912C18.7187 27.2903 18.1344 26.5784 17.7894 25.7455C17.4445 24.9126 17.3542 23.9961 17.5301 23.1119C17.7059 22.2277 18.1401 21.4155 18.7775 20.778C19.415 20.1405 20.2272 19.7064 21.1113 19.5305C21.9955 19.3546 22.912 19.4449 23.7449 19.7899C24.5778 20.1349 25.2896 20.7191 25.7905 21.4687C26.2913 22.2183 26.5587 23.0996 26.5587 24.0012C26.5591 24.6 26.4416 25.1931 26.2127 25.7466C25.9838 26.3 25.6482 26.8029 25.2249 27.2266C24.8016 27.6502 24.2989 27.9863 23.7457 28.2156C23.1924 28.4449 22.5994 28.5629 22.0006 28.5629V28.5594ZM22.0006 17.1188C21.0988 17.1191 20.2172 16.8518 19.4673 16.351C18.7174 15.8501 18.1328 15.1381 17.7876 14.305C17.4423 13.4719 17.3519 12.5551 17.5276 11.6706C17.7034 10.7861 18.1376 9.97359 18.7751 9.33583C19.4127 8.69807 20.2251 8.26371 21.1095 8.08769C21.994 7.91168 22.9107 8.0019 23.7439 8.34696C24.5771 8.69201 25.2892 9.2764 25.7902 10.0262C26.2913 10.776 26.5587 11.6576 26.5587 12.5594C26.5591 13.1584 26.4416 13.7515 26.2127 14.305C25.9839 14.8585 25.6482 15.3615 25.2249 15.7852C24.8016 16.209 24.299 16.5451 23.7458 16.7746C23.1925 17.004 22.5995 17.1221 22.0006 17.1223V17.1188ZM33.4408 17.1188C32.539 17.1188 31.6575 16.8514 30.9078 16.3504C30.158 15.8494 29.5736 15.1373 29.2286 14.3042C28.8835 13.4711 28.7932 12.5544 28.9691 11.6699C29.145 10.7855 29.5793 9.97307 30.2169 9.33542C30.8545 8.69778 31.6669 8.26354 32.5513 8.08761C33.4357 7.91168 34.3524 8.00198 35.1855 8.34707C36.0186 8.69216 36.7307 9.27655 37.2316 10.0263C37.7326 10.7761 38 11.6576 38 12.5594C38.0005 13.1585 37.8829 13.7517 37.6539 14.3053C37.425 14.8589 37.0893 15.3619 36.6659 15.7856C36.2424 16.2094 35.7397 16.5455 35.1863 16.7749C34.6329 17.0042 34.0398 17.1223 33.4408 17.1223V17.1188Z" fill="#ECF0F1"/>
</svg>
