<svg width="236" height="246" viewBox="0 0 236 246" fill="none" xmlns="http://www.w3.org/2000/svg">
<path fill-rule="evenodd" clip-rule="evenodd" d="M151.271 0.561041L14.8352 10.6075C3.83418 11.5604 0 18.737 0 27.3404V176.559C0 183.263 2.3895 188.994 8.13708 196.652L40.2093 238.262C45.4775 244.962 50.2647 246.395 60.3242 245.915L218.766 236.349C232.167 235.397 236 229.174 236 218.653V50.7785C236 45.3394 233.848 43.7683 227.504 39.1369C227.155 38.8827 226.793 38.6187 226.418 38.344L182.866 7.73571C172.336 0.0865884 168.025 -0.875927 151.271 0.561041Z" fill="white"/>
<path fill-rule="evenodd" clip-rule="evenodd" d="M149.195 8.52455L21.5465 17.9176C11.254 18.8085 7.66675 25.5183 7.66675 33.5622V173.076C7.66675 179.344 9.90235 184.701 15.2797 191.862L45.2863 230.765C50.2152 237.029 54.6941 238.37 64.1057 237.921L212.343 228.976C224.88 228.086 228.467 222.269 228.467 212.432V55.4758C228.467 50.3905 226.453 48.9216 220.518 44.5915C220.191 44.3538 219.852 44.1069 219.502 43.8501L178.755 15.2326C168.903 8.08096 164.87 7.18104 149.195 8.52455ZM67.4667 52.9014C55.3641 53.7179 52.6141 53.9034 45.7409 48.3236L28.2632 34.4623C26.4807 32.6698 27.3747 30.4342 31.8505 29.9903L154.57 21.0464C164.868 20.1501 170.241 23.7335 174.274 26.8615L195.323 42.0668C196.219 42.5123 198.455 45.1918 195.766 45.1918L69.0292 52.7963L67.4667 52.9014ZM53.3501 211.088V77.838C53.3501 72.0259 55.1418 69.341 60.5131 68.8894L206.066 60.3963C211.004 59.9493 213.239 63.0819 213.239 68.8894V201.246C213.239 207.063 212.341 211.989 204.276 212.432L64.9927 220.485C56.932 220.929 53.3501 218.249 53.3501 211.088Z" fill="black"/>
<path d="M93.9853 119.984C102.778 119.55 109.922 111.611 109.941 102.251C109.96 92.8921 102.848 85.6571 94.0553 86.0915C85.2626 86.5259 78.1191 94.4653 78.0998 103.825C78.0804 113.184 85.1926 120.419 93.9853 119.984Z" fill="black"/>
<path d="M133.943 118.01C142.736 117.576 149.879 109.636 149.898 100.277C149.918 90.9179 142.806 83.6829 134.013 84.1173C125.22 84.5518 118.077 92.4911 118.057 101.85C118.038 111.21 125.15 118.445 133.943 118.01Z" fill="black"/>
<path d="M133.855 160.543C142.648 160.108 149.791 152.169 149.811 142.809C149.83 133.45 142.718 126.215 133.925 126.65C125.132 127.084 117.989 135.023 117.969 144.383C117.95 153.742 125.062 160.977 133.855 160.543Z" fill="black"/>
<path d="M133.767 203.075C142.56 202.64 149.703 194.701 149.723 185.342C149.742 175.982 142.63 168.747 133.837 169.182C125.044 169.616 117.901 177.556 117.881 186.915C117.862 196.274 124.974 203.509 133.767 203.075Z" fill="black"/>
<path d="M173.9 116.036C182.693 115.602 189.836 107.662 189.856 98.303C189.875 88.9437 182.763 81.7086 173.97 82.1431C165.177 82.5775 158.034 90.5169 158.015 99.8762C157.995 109.235 165.107 116.47 173.9 116.036Z" fill="black"/>
</svg>
