<svg width="512" height="512" viewBox="0 0 512 512" fill="none" xmlns="http://www.w3.org/2000/svg">
<path fill-rule="evenodd" clip-rule="evenodd" d="M328.542 11.1221L55.6704 31.215C33.6684 33.1207 26 47.474 26 64.6809V363.118C26 376.527 30.779 387.987 42.2742 403.305L106.419 486.523C116.955 499.924 126.529 502.79 146.648 501.831L463.533 482.697C490.333 480.793 498 468.349 498 447.306V111.557C498 100.679 493.696 97.5366 481.008 88.2739C480.31 87.7655 479.585 87.2374 478.836 86.688L391.733 25.4714C370.671 10.1732 362.051 8.24815 328.542 11.1221Z" fill="white"/>
<path fill-rule="evenodd" clip-rule="evenodd" d="M324.39 27.0491L69.093 45.8352C48.508 47.6169 41.3335 61.0367 41.3335 77.1244V356.151C41.3335 368.688 45.8047 379.403 56.5595 393.724L116.573 471.53C126.43 484.059 135.388 486.739 154.211 485.842L450.686 467.953C475.761 466.172 482.934 454.537 482.934 434.863V120.952C482.934 110.781 478.907 107.843 467.036 99.1829C466.383 98.7076 465.705 98.2138 465.004 97.7002L383.511 40.4652C363.806 26.1619 355.74 24.3621 324.39 27.0491ZM160.933 115.803C136.728 117.436 131.228 117.807 117.482 106.647L82.5265 78.9245C78.9615 75.3396 80.7494 70.8684 89.701 69.9806L335.14 52.0927C355.736 50.3003 366.483 57.4671 374.548 63.7231L416.646 94.1336C418.438 95.0245 422.91 100.384 417.532 100.384L164.058 115.593L160.933 115.803ZM132.7 432.175V165.676C132.7 154.052 136.284 148.682 147.026 147.779L438.133 130.793C448.007 129.899 452.478 136.164 452.478 147.779V412.492C452.478 424.127 450.681 433.977 434.552 434.863L155.985 450.971C139.864 451.857 132.7 446.498 132.7 432.175Z" fill="black"/>
<path d="M213.936 249.271C231.503 248.016 245.79 232.137 245.848 213.804C245.905 195.471 231.711 181.627 214.144 182.881C196.578 184.136 182.291 200.015 182.233 218.347C182.176 236.68 196.37 250.525 213.936 249.271Z" fill="black"/>
<path d="M293.851 245.322C311.418 244.068 325.705 228.189 325.763 209.856C325.82 191.523 311.626 177.678 294.059 178.933C276.493 180.187 262.206 196.066 262.148 214.399C262.091 232.732 276.285 246.577 293.851 245.322Z" fill="black"/>
<path d="M293.676 330.387C311.242 329.132 325.529 313.253 325.587 294.92C325.644 276.588 311.45 262.743 293.884 263.997C276.317 265.252 262.03 281.131 261.972 299.464C261.915 317.796 276.109 331.641 293.676 330.387Z" fill="black"/>
<path d="M293.5 415.451C311.066 414.197 325.353 398.318 325.411 379.985C325.468 361.652 311.274 347.807 293.708 349.062C276.141 350.316 261.854 366.195 261.796 384.528C261.739 402.861 275.933 416.706 293.5 415.451Z" fill="black"/>
<path d="M373.766 241.374C391.333 240.119 405.62 224.24 405.677 205.908C405.735 187.575 391.541 173.73 373.974 174.984C356.407 176.239 342.12 192.118 342.063 210.451C342.005 228.784 356.199 242.628 373.766 241.374Z" fill="black"/>
</svg>
